<svg width="64" height="64" viewBox="0 0 64 64" fill="none" xmlns="http://www.w3.org/2000/svg">
<rect x="1.5" y="1.5" width="61" height="61" fill="white"/>
<rect x="1.5" y="1.5" width="61" height="61" stroke="black" stroke-width="3"/>
<path d="M42.5434 38.09L42.6458 34.8132C42.6799 33.4137 43.2943 32.714 44.489 32.714C45.6836 32.714 46.281 33.499 46.281 35.0692C46.281 38.7897 45.8031 41.3838 44.8474 42.8516C43.5503 44.8313 41.417 45.8212 38.4474 45.8212C35.7167 45.8212 33.7711 44.9508 32.6106 43.21C31.7572 41.947 31.3306 39.7966 31.3306 36.7588V24.4708C31.3306 23.754 31.0063 23.3956 30.3578 23.3956H28.7194C28.1732 23.3956 27.7124 23.2249 27.337 22.8836C26.9956 22.5081 26.825 22.0644 26.825 21.5524C26.825 21.0745 26.9956 20.6478 27.337 20.2724C27.7124 19.8969 28.122 19.7092 28.5658 19.7092H30.5626C31.1428 19.7092 31.433 19.3849 31.433 18.7364V13.4628C31.433 12.1657 32.0986 11.5172 33.4298 11.5172C34.6586 11.5172 35.273 12.1657 35.273 13.4628V18.9412C35.273 19.4532 35.5802 19.7092 36.1946 19.7092H41.7754C43.0724 19.7092 43.721 20.3065 43.721 21.5012C43.721 22.7641 43.0212 23.3956 41.6218 23.3956H35.9898C35.5119 23.3956 35.273 23.754 35.273 24.4708V37.066C35.273 40.65 36.4506 42.442 38.8058 42.442C41.1951 42.442 42.441 40.9913 42.5434 38.09Z" fill="black"/>
<path d="M20.6506 23.754L20.7018 39.6772C20.736 41.418 21.1968 42.2884 22.0842 42.2884C22.289 42.2884 22.7157 42.203 23.3642 42.0324C23.7738 41.9641 24.0469 41.93 24.1834 41.93C25.3098 41.93 25.873 42.5102 25.873 43.6708C25.873 44.7972 25.1733 45.3604 23.7738 45.3604C23.2277 45.3604 22.3573 45.2921 21.1626 45.1556C19.968 45.019 19.0464 44.9508 18.3978 44.9508C17.8517 44.9508 17.0325 45.019 15.9402 45.1556C14.848 45.2921 14.0458 45.3604 13.5338 45.3604H13.2778C11.8442 45.3604 11.1274 44.746 11.1274 43.5172C11.1274 42.459 11.7077 41.93 12.8682 41.93C12.9365 41.93 13.056 41.93 13.2266 41.93C13.4314 41.9641 13.585 41.9812 13.6874 41.9812C14.5408 42.1177 15.0357 42.186 15.1722 42.186C15.7866 42.186 16.1621 41.93 16.2986 41.418C16.4693 40.8718 16.5717 39.4894 16.6058 37.2708L16.657 33.6868L16.8106 25.7508L16.7594 16.6372C16.7253 15.6132 16.6741 14.9305 16.6058 14.5892C16.3669 13.8041 15.889 13.4116 15.1722 13.4116C15.0698 13.4116 14.6261 13.4798 13.841 13.6164C13.4656 13.6846 13.1584 13.7188 12.9194 13.7188C11.7589 13.7188 11.1786 13.1726 11.1786 12.0804C11.1786 10.954 11.8613 10.3908 13.2266 10.3908C13.6021 10.3908 13.9264 10.4078 14.1994 10.442L15.4282 10.5956C15.9744 10.6638 16.4352 10.698 16.8106 10.698C17.152 10.698 17.664 10.6468 18.3466 10.5444C19.0293 10.4078 19.5413 10.3396 19.8826 10.3396C20.6677 10.3396 21.0602 10.8345 21.0602 11.8244C21.0602 12.1657 21.0432 12.4217 21.009 12.5924C20.7701 15.2206 20.6506 18.9412 20.6506 23.754Z" fill="black"/>
<path fill-rule="evenodd" clip-rule="evenodd" d="M62.9333 1.06667H1.06667V62.9333H62.9333V1.06667ZM0 0V64H64V0H0Z" fill="black"/>
</svg>
